<svg width="36" height="36" viewBox="0 0 36 36" fill="none" xmlns="http://www.w3.org/2000/svg">
<path d="M30.6022 5.23361C28.9518 3.56788 26.9864 2.24729 24.8204 1.34877C22.6545 0.450259 20.3314 -0.00819962 17.9865 0.000110994C8.16075 0.000110994 0.153 8.00561 0.144 17.8336C0.144 20.9814 0.9675 24.0436 2.52225 26.7549L0 36.0001L9.459 33.5206C12.0758 34.9447 15.0073 35.6911 17.9865 35.6919H17.9955C27.8235 35.6919 35.829 27.6864 35.838 17.8494C35.8402 15.505 35.3786 13.1833 34.4796 11.0181C33.5806 8.85289 32.2621 6.88698 30.6 5.23361H30.6022ZM17.9865 32.6724C15.3292 32.6733 12.7208 31.9582 10.4355 30.6024L9.8955 30.2784L4.284 31.7499L5.7825 26.2756L5.4315 25.7109C3.94607 23.3491 3.16046 20.6147 3.16575 17.8246C3.16575 9.66611 9.819 3.01061 17.9955 3.01061C19.9434 3.00712 21.8728 3.38923 23.6723 4.13492C25.4718 4.88061 27.106 5.97512 28.4805 7.35536C29.8598 8.73022 30.9533 10.3646 31.6978 12.1641C32.4424 13.9637 32.8232 15.8929 32.8185 17.8404C32.8095 26.0281 26.1562 32.6724 17.9865 32.6724ZM26.1203 21.5709C25.677 21.3481 23.4877 20.2704 23.076 20.1174C22.6665 19.9711 22.3673 19.8946 22.0747 20.3401C21.7755 20.7834 20.9205 21.7936 20.664 22.0839C20.4075 22.3831 20.142 22.4169 19.6965 22.1964C19.2533 21.9714 17.8155 21.5034 16.1145 19.9801C14.787 18.7989 13.8982 17.3364 13.6327 16.8931C13.3763 16.4476 13.608 16.2091 13.8307 15.9864C14.0265 15.7884 14.274 15.4644 14.4967 15.2079C14.7217 14.9514 14.796 14.7624 14.9422 14.4654C15.0885 14.1639 15.0188 13.9074 14.9085 13.6846C14.796 13.4619 13.9072 11.2636 13.5315 10.3771C13.1715 9.50186 12.8047 9.62336 12.5302 9.61211C12.2737 9.59636 11.9745 9.59636 11.6753 9.59636C11.4493 9.60198 11.2269 9.65424 11.0221 9.74988C10.8172 9.84552 10.6344 9.98246 10.485 10.1521C10.0755 10.5976 8.93025 11.6754 8.93025 13.8736C8.93025 16.0719 10.5278 18.1846 10.7527 18.4839C10.9732 18.7831 13.8892 23.2809 18.3645 25.2159C19.422 25.6771 20.2545 25.9494 20.9048 26.1564C21.9735 26.4984 22.9387 26.4466 23.7083 26.3364C24.5632 26.2059 26.343 25.2564 26.7188 24.2146C27.0877 23.1706 27.0878 22.2796 26.9753 22.0929C26.865 21.9039 26.5658 21.7936 26.1203 21.5709Z" fill="#FF3535"/>
</svg>
